<svg id="Capa_1" enable-background="new 0 0 512 512" height="512" viewBox="0 0 512 512" width="512" xmlns="http://www.w3.org/2000/svg"><g><g><g><g><g><g id="XMLID_2288_"><g id="XMLID_2317_"><g id="XMLID_2318_"><g id="XMLID_2319_"><g id="XMLID_2320_"><g id="XMLID_2321_"><g id="XMLID_2322_"><g id="XMLID_2323_"><g id="XMLID_2324_"><g id="XMLID_2325_"><g id="XMLID_2326_"><g id="XMLID_2327_"><g id="XMLID_2328_"><g id="XMLID_2329_"><g id="XMLID_2330_"><circle cx="256" cy="256" fill="#5c6b61" r="256"/></g><path d="m511.657 269.362-70.862-70.862-24.255 12.57-72.968-83.62-8.168 2.485-79.404-79.405-33.564 78.219-28.674-28.674c-58.713 18.242-115.979 155.103-115.979 155.103l53.604 53.604-32.538 49.255 153.942 153.943c1.068.013 2.138.02 3.209.02 136.903 0 248.706-107.464 255.657-242.638z" fill="#444c46"/></g></g></g></g></g></g></g></g></g></g></g></g></g></g></g></g></g></g><g><path d="m347.926 281.237h80.777v80.777h-80.777z" fill="#fe9738"/><circle cx="126.779" cy="324.72" fill="#74b58b" r="43.482"/></g><path d="m256 50.526-52.8 86.965h105.6z" fill="#ffe471"/><path d="m193.761 100.075-63.083 5.844 9.529 13.788c-39.137 33.525-62.425 82.924-62.425 135.472h30c0-42.647 18.446-82.804 49.591-110.634l8.621 12.475z" fill="#fff"/><path d="m426.167 202.308c-13.335-42.797-42.569-79.798-82.705-102.444l-14.742 26.126c32.971 18.604 57.099 48.851 68.379 83.883l-16.418 4.273 43.965 45.615 16.149-61.26z" fill="#dbdbdb"/><path d="m354.826 403.507-16.654-24.953c-24.349 16.251-52.764 24.841-82.172 24.841-12.851 0-25.511-1.641-37.726-4.844l6.827-13.391-63.3 2.587 35.084 52.751 7.494-14.697c16.605 5.015 33.965 7.593 51.621 7.593 35.356.001 69.53-10.334 98.826-29.887z" fill="#fff"/><path d="m308.8 137.49h-52.8v-86.96z" fill="#f9c74b"/><path d="m354.83 403.51c-29.3 19.55-63.47 29.88-98.83 29.88v-30c29.41 0 57.82-8.59 82.17-24.84z" fill="#dbdbdb"/></g></svg>