<svg id="Layer_1" height="512" viewBox="0 0 256 256" width="512" xmlns="http://www.w3.org/2000/svg"><g><g><path d="m116.23 193.481c-6.946 0-13.545-1.46-19.513-4.076v13.369c0 10.777 8.736 19.513 19.513 19.513s19.513-8.736 19.513-19.513v-13.369c-5.967 2.616-12.566 4.076-19.513 4.076z" fill="#f9cfcf"/></g><g><path d="m163.577 200.742h-27.833v2.032c0 10.777-8.736 19.513-19.513 19.513s-19.513-8.736-19.513-19.513v-2.032h-22.669c-9.691 0-17.547 7.856-17.547 17.547v34.711h124.622v-34.711c0-9.691-7.856-17.547-17.547-17.547z" fill="#a4c9ff"/></g><g><g><path d="m155.737 88.349c-.005 0-.01 0-.015 0-.589.001-.958-.588-.656-1.064 1.344-2.122 2.007-4.668 1.703-7.376-.636-5.673-5.611-10.181-11.66-10.588-3.428-.231-6.589.825-8.999 2.704-.439.342-1.109.102-1.203-.426-1.442-8.114-11.054-12.44-18.677-8.412-7.601-4.016-17.231.278-18.677 8.412-.094.529-.764.768-1.203.426-2.41-1.879-5.572-2.935-8.999-2.704-6.049.407-11.024 4.915-11.66 10.588-.304 2.708.36 5.255 1.703 7.376.301.476-.067 1.065-.656 1.064-.005 0-.01 0-.015 0-6.993 0-12.662 5.333-12.662 11.912 0 2.181.637 4.216 1.725 5.975h100.89c1.088-1.758 1.725-3.794 1.725-5.975-.001-6.579-5.67-11.912-12.664-11.912z" fill="#f9a7a7"/></g></g><g><g><path d="m166.675 108.235h-100.89c-.693 0-1.336-.359-1.701-.948-1.324-2.141-2.023-4.57-2.023-7.026 0-7.023 5.514-12.848 12.65-13.782-.924-2.129-1.271-4.443-1.007-6.794.737-6.578 6.547-11.892 13.513-12.36 3.146-.21 6.212.52 8.831 2.076 1.156-3.529 3.729-6.451 7.269-8.18 4.069-1.988 8.823-2.069 12.914-.256 4.091-1.811 8.842-1.733 12.909.252 3.542 1.73 6.118 4.654 7.273 8.184 2.619-1.556 5.691-2.289 8.831-2.076 6.966.469 12.775 5.782 13.513 12.36.264 2.351-.083 4.665-1.007 6.794 7.136.934 12.65 6.758 12.65 13.782 0 2.457-.7 4.887-2.024 7.027-.364.589-1.008.947-1.701.947zm-99.705-4h98.521c.597-1.256.909-2.612.909-3.975 0-5.465-4.783-9.912-10.663-9.912h-.015c-.001 0-.003 0-.005 0-1.013 0-1.944-.543-2.426-1.418-.47-.851-.437-1.892.085-2.716 1.16-1.833 1.646-3.936 1.406-6.083-.526-4.685-4.742-8.475-9.807-8.815-2.794-.191-5.503.624-7.635 2.286-.758.591-1.791.744-2.694.397-.902-.346-1.54-1.112-1.707-2.049-.547-3.079-2.572-5.681-5.555-7.138-3.236-1.581-7.057-1.528-10.218.143-.585.31-1.284.309-1.869 0-3.161-1.671-6.983-1.723-10.224-.139-2.98 1.456-5.003 4.056-5.55 7.133-.167.938-.804 1.704-1.707 2.05-.905.347-1.937.194-2.696-.397-2.131-1.661-4.839-2.479-7.635-2.285-5.065.34-9.281 4.13-9.807 8.815-.241 2.147.246 4.251 1.406 6.084.521.824.555 1.864.085 2.715-.482.875-1.413 1.418-2.43 1.418-.001 0-.003 0-.005 0-5.891 0-10.674 4.447-10.674 9.912.001 1.362.313 2.718.91 3.974zm9.751-17.886c-.001 0-.001 0-.002 0h.004s-.001 0-.002 0zm79 0s-.001 0-.002 0h.003z" fill="#3762cc"/></g></g><g><path d="m60.593 106.235h111.274v38.409h-111.274z" fill="#4671c6"/></g><g><path d="m164.568 127.371v-4.526c0-5.84-1.058-11.435-2.989-16.61h-90.698c-1.931 5.175-2.989 10.77-2.989 16.61v4.526c-8.393-.17-15.053 6.516-15.053 14.599 0 8.631 7.535 15.457 16.329 14.527 4.989 21.193 24.159 36.983 47.061 36.983 22.904 0 42.073-15.791 47.061-36.983 8.783.929 16.329-5.885 16.329-14.527.002-8.086-6.663-14.769-15.051-14.599z" fill="#f9cfcf"/></g><g><path d="m141.326 153.725c-3.374 0-6.11-2.735-6.11-6.11v-6.517c0-3.374 2.735-6.11 6.11-6.11 3.374 0 6.11 2.735 6.11 6.11v6.517c-.001 3.375-2.736 6.11-6.11 6.11z" fill="#3762cc"/></g><g><path d="m91.123 153.725c-3.374 0-6.11-2.735-6.11-6.11v-6.517c0-3.374 2.735-6.11 6.11-6.11 3.374 0 6.11 2.735 6.11 6.11v6.517c0 3.375-2.736 6.11-6.11 6.11z" fill="#3762cc"/></g><g><path d="m171.867 18.527v87.709c18.268-6.816 31.292-24.546 31.292-45.349 0-19.72-11.703-36.679-28.483-44.197-1.317-.591-2.809.392-2.809 1.837z" fill="#4671c6"/></g><g><path d="m85.857 93.289c-4.593 0-9.009-2.474-11.075-6.666-.488-.991-.081-2.19.91-2.678.992-.488 2.19-.081 2.678.91 1.899 3.853 6.807 5.52 10.942 3.717 1.914-.835 3.389-2.302 4.152-4.128.425-1.019 1.598-1.5 2.616-1.074 1.019.426 1.5 1.597 1.074 2.616-1.163 2.783-3.38 5.003-6.244 6.252-1.635.713-3.356 1.051-5.053 1.051z" fill="#3762cc"/></g><g><g><g><path d="m108.623 73.174c.197.286.303.626.303.974v2.137h14.609v-2.137c0-.348.106-.687.303-.974 2.354-3.414 4.991-6.618 7.756-9.709 3.441-3.847 5.459-8.994 5.223-14.615-.455-10.837-9.404-19.542-20.248-19.716-11.535-.185-20.944 9.11-20.944 20.603 0 5.267 1.977 10.071 5.229 13.713 2.761 3.093 5.402 6.291 7.755 9.704z" fill="#ffea92"/></g><g><path d="m123.535 78.285h-14.609c-1.104 0-2-.896-2-2v-2.049c-2.041-2.955-4.448-5.963-7.564-9.454-3.7-4.145-5.737-9.488-5.737-15.045 0-6.107 2.397-11.829 6.75-16.113 4.352-4.283 10.116-6.609 16.226-6.489 11.956.191 21.713 9.693 22.214 21.631.249 5.929-1.786 11.623-5.73 16.032-3.078 3.441-5.479 6.442-7.55 9.438v2.048c0 1.106-.895 2.001-2 2.001zm-16.559-3.975h.01zm3.95-.025h10.609v-.137c0-.758.228-1.488.658-2.111 2.149-3.117 4.737-6.357 7.911-9.906 3.246-3.628 4.92-8.315 4.716-13.197-.413-9.823-8.443-17.642-18.283-17.8-5.01-.07-9.774 1.816-13.356 5.341-3.583 3.526-5.556 8.236-5.556 13.262 0 4.573 1.677 8.97 4.721 12.381 3.246 3.636 5.76 6.782 7.91 9.9l.014.02c.43.623.657 1.353.657 2.109v.138z" fill="#3762cc"/></g><g><path d="m113.315 80.354c-1.104 0-2-.896-2-2v-13.128l-2.611-4.178c-.585-.937-.301-2.17.636-2.756.938-.585 2.171-.301 2.756.636l2.916 4.665c.199.318.304.685.304 1.06v13.701c-.001 1.104-.896 2-2.001 2z" fill="#3762cc"/></g><g><path d="m119.146 80.354c-1.104 0-2-.896-2-2v-13.702c0-.375.105-.742.304-1.06l2.915-4.665c.585-.937 1.819-1.221 2.756-.636s1.221 1.819.636 2.756l-2.611 4.178v13.127c0 1.106-.896 2.002-2 2.002z" fill="#3762cc"/></g><g><path d="m123.978 74.536h-15.496c-.558 0-1.01.452-1.01 1.01v3.481c0 .558.452 1.011 1.01 1.011h.337c-.558 0-1.011.452-1.011 1.01v3.481c0 .419.255.778.619.931v.079c0 4 3.243 7.243 7.243 7.243h1.121c4 0 7.243-3.243 7.243-7.243v-.079c.363-.153.619-.512.619-.931v-3.481c0-.558-.452-1.01-1.011-1.01h.337c.558 0 1.01-.453 1.01-1.011v-3.481c0-.557-.453-1.01-1.011-1.01z" fill="#e0ebfc"/></g><g><path d="m116.791 94.783h-1.121c-4.084 0-7.635-2.621-8.835-6.522-.186-.602-.308-1.221-.367-1.85-.418-.522-.659-1.182-.659-1.882v-3.481c0-.187.017-.369.05-.546-.246-.436-.387-.939-.387-1.475v-3.481c0-1.66 1.351-3.01 3.011-3.01h15.496c1.66 0 3.01 1.351 3.01 3.01v3.481c0 .536-.141 1.039-.387 1.475.033.177.05.36.05.546v3.481c0 .705-.244 1.367-.667 1.891-.475 4.72-4.417 8.363-9.194 8.363zm-6.982-10.768c.388.371.619.89.619 1.446 0 .606.078 1.126.231 1.624.68 2.212 2.694 3.698 5.012 3.698h1.121c2.891 0 5.242-2.352 5.242-5.243 0-.557.231-1.114.619-1.508v-2.256c-.604-.344-1.01-.994-1.01-1.738 0-.876.563-1.621 1.347-1.891v-1.611h-13.517v1.611c.784.271 1.348 1.015 1.348 1.891 0 .745-.407 1.395-1.011 1.739v2.238zm13.831-1.977h.001s0 0-.001 0zm-14.819 0h-.001zm15.158-5.502h.01z" fill="#3762cc"/></g></g><g><g><path d="m116.23 19.005c-1.83 0-3.314-1.484-3.314-3.314v-9.377c0-1.83 1.484-3.314 3.314-3.314s3.314 1.484 3.314 3.314v9.377c0 1.83-1.483 3.314-3.314 3.314z" fill="#ffea92"/></g></g><g><g><path d="m96.325 25.894-6.631-6.63c-1.295-1.294-1.295-3.393 0-4.687 1.293-1.294 3.392-1.294 4.686 0l6.631 6.63c1.295 1.294 1.295 3.393 0 4.687-1.291 1.292-3.389 1.296-4.686 0z" fill="#ffea92"/></g></g><g><g><path d="m131.449 25.894c-1.295-1.294-1.295-3.393 0-4.687l6.631-6.63c1.293-1.294 3.392-1.294 4.686 0 1.295 1.294 1.295 3.393 0 4.687l-6.631 6.63c-1.29 1.292-3.389 1.296-4.686 0z" fill="#ffea92"/></g></g><g><g><path d="m155.476 40.183h-9.377c-1.83 0-3.314-1.484-3.314-3.314s1.484-3.314 3.314-3.314h9.377c1.83 0 3.314 1.484 3.314 3.314s-1.484 3.314-3.314 3.314z" fill="#ffea92"/></g></g><g><g><path d="m86.363 40.183h-9.377c-1.83 0-3.314-1.484-3.314-3.314s1.484-3.314 3.314-3.314h9.377c1.83 0 3.314 1.484 3.314 3.314s-1.484 3.314-3.314 3.314z" fill="#ffea92"/></g></g><g><g><path d="m116.23 21.005c-2.93 0-5.314-2.384-5.314-5.314v-9.377c0-2.93 2.384-5.314 5.314-5.314s5.314 2.384 5.314 5.314v9.377c0 2.93-2.383 5.314-5.314 5.314zm0-16.005c-.725 0-1.314.589-1.314 1.314v9.377c0 .725.589 1.314 1.314 1.314s1.314-.589 1.314-1.314v-9.377c0-.725-.589-1.314-1.314-1.314z" fill="#3762cc"/></g></g><g><g><path d="m98.668 28.865c-1.419 0-2.753-.553-3.757-1.557l-6.631-6.629c-2.072-2.072-2.072-5.444 0-7.516 1.002-1.004 2.337-1.557 3.757-1.557 1.419 0 2.754.553 3.758 1.557l6.63 6.63c1.004 1.003 1.557 2.338 1.557 3.757s-.553 2.754-1.557 3.758c-1.001 1.002-2.335 1.556-3.754 1.556-.001.001-.002.001-.003.001zm-6.631-13.259c-.351 0-.68.136-.928.384-.249.249-.386.579-.386.93s.137.681.385.929l6.631 6.629c.249.248.578.385.929.385s.68-.137.927-.384c.249-.249.386-.579.386-.93s-.137-.681-.385-.929l-6.63-6.631c-.248-.246-.578-.383-.929-.383z" fill="#3762cc"/></g></g><g><g><path d="m133.792 28.865c-1.419 0-2.753-.552-3.756-1.556s0 0-.001 0c-1.004-1.003-1.557-2.338-1.557-3.757 0-1.42.553-2.754 1.558-3.758l6.63-6.63c1.002-1.003 2.337-1.557 3.756-1.557s2.754.553 3.758 1.557c1.004 1.003 1.557 2.338 1.557 3.758 0 1.419-.553 2.754-1.557 3.758l-6.63 6.629c-1.001 1.003-2.335 1.556-3.754 1.557-.002-.001-.003-.001-.004-.001zm6.631-13.259c-.351 0-.68.137-.928.384l-6.631 6.631c-.249.249-.385.579-.385.929s.137.681.385.929h.001c.248.248.578.385.928.385h.001c.351 0 .68-.137.927-.384l6.631-6.63c.249-.249.385-.579.385-.929 0-.351-.137-.681-.385-.929-.248-.249-.578-.386-.929-.386z" fill="#3762cc"/></g></g><g><g><path d="m155.476 42.183h-9.377c-2.93 0-5.314-2.384-5.314-5.314s2.384-5.314 5.314-5.314h9.377c2.93 0 5.314 2.384 5.314 5.314s-2.384 5.314-5.314 5.314zm-9.378-6.628c-.725 0-1.314.589-1.314 1.314s.589 1.314 1.314 1.314h9.377c.725 0 1.314-.589 1.314-1.314s-.589-1.314-1.314-1.314z" fill="#3762cc"/></g></g><g><g><path d="m86.363 42.183h-9.377c-2.93 0-5.314-2.384-5.314-5.314s2.384-5.314 5.314-5.314h9.377c2.93 0 5.314 2.384 5.314 5.314s-2.384 5.314-5.314 5.314zm-9.378-6.628c-.725 0-1.314.589-1.314 1.314s.59 1.314 1.314 1.314h9.377c.725 0 1.314-.589 1.314-1.314s-.589-1.314-1.314-1.314z" fill="#3762cc"/></g></g><g><path d="m123.642 82.038h-14.822c-1.104 0-2-.896-2-2s.896-2 2-2h14.822c1.104 0 2 .896 2 2s-.896 2-2 2z" fill="#3762cc"/></g><g><path d="m124.033 87.541h-15.606c-1.104 0-2-.896-2-2s.896-2 2-2h15.606c1.104 0 2 .896 2 2s-.895 2-2 2z" fill="#3762cc"/></g></g><g><path d="m146.67 93.289c-1.697 0-3.417-.337-5.054-1.051-2.864-1.25-5.082-3.47-6.244-6.252-.426-1.019.055-2.19 1.074-2.616 1.02-.427 2.19.055 2.616 1.074.764 1.827 2.238 3.293 4.153 4.128 4.137 1.803 9.043.136 10.942-3.717.489-.991 1.689-1.397 2.678-.91.991.488 1.398 1.688.91 2.678-2.066 4.191-6.482 6.666-11.075 6.666z" fill="#3762cc"/></g><g><path d="m116.23 175.117c-5.805 0-10.511-4.706-10.511-10.511v-1.823h21.023v1.823c0 5.805-4.706 10.511-10.512 10.511z" fill="#f9a7a7"/></g><g><g><ellipse cx="147.792" cy="160.613" fill="#f9a7a7" rx="7.337" ry="4.887"/></g><g><ellipse cx="84.669" cy="160.613" fill="#f9a7a7" rx="7.337" ry="4.887"/></g></g><g><path d="m116.23 195.481c-22.95 0-42.697-15.089-48.597-36.9-.011 0-.023 0-.034 0-4.146 0-8.171-1.522-11.261-4.302-3.494-3.145-5.498-7.631-5.498-12.309 0-4.478 1.769-8.677 4.981-11.825 2.75-2.694 6.269-4.323 10.071-4.695v-2.605c0-5.945 1.048-11.769 3.115-17.309.292-.782 1.039-1.301 1.874-1.301h90.698c.835 0 1.582.519 1.874 1.301 2.066 5.54 3.114 11.363 3.114 17.309v2.605c3.802.372 7.321 2 10.072 4.696 3.212 3.147 4.981 7.347 4.981 11.824 0 4.678-2.003 9.164-5.497 12.307-3.09 2.781-7.117 4.303-11.262 4.304-.011 0-.023 0-.034 0-5.899 21.811-25.646 36.9-48.597 36.9zm-47.059-40.983c.918 0 1.731.63 1.945 1.542 4.912 20.868 23.464 35.441 45.114 35.441s40.202-14.574 45.114-35.441c.231-.98 1.152-1.637 2.157-1.53 3.629.382 7.256-.784 9.946-3.205 2.651-2.386 4.172-5.788 4.172-9.334 0-3.394-1.343-6.579-3.781-8.967-2.462-2.414-5.74-3.714-9.231-3.632-.538.019-1.056-.194-1.44-.571-.384-.376-.6-.891-.6-1.429v-4.526c0-5.003-.807-9.911-2.399-14.61h-87.876c-1.593 4.7-2.399 9.607-2.399 14.61v4.526c0 .538-.216 1.052-.6 1.429-.384.376-.916.588-1.44.571-3.5-.068-6.769 1.219-9.231 3.631-2.438 2.389-3.781 5.574-3.781 8.968 0 3.546 1.521 6.948 4.174 9.335 2.689 2.42 6.313 3.587 9.945 3.204.07-.009.141-.012.211-.012z" fill="#3762cc"/></g><g><path d="m116.23 224.287c-11.862 0-21.513-9.651-21.513-21.513v-13.369c0-.675.341-1.305.906-1.674.566-.37 1.278-.428 1.897-.158 5.917 2.593 12.212 3.908 18.71 3.908s12.793-1.314 18.71-3.908c.618-.27 1.332-.211 1.897.158.565.37.906.999.906 1.674v13.369c.001 11.862-9.65 21.513-21.513 21.513zm-17.513-31.919v10.406c0 9.657 7.856 17.513 17.513 17.513s17.513-7.856 17.513-17.513v-10.406c-5.598 2.067-11.476 3.113-17.513 3.113s-11.915-1.046-17.513-3.113z" fill="#3762cc"/></g><g><path d="m171.867 131.107c-.323 0-.647-.078-.942-.236-1.923-1.026-4.113-1.54-6.317-1.5-.567.017-1.057-.195-1.44-.571-.384-.376-.6-.891-.6-1.428v-4.526c0-5.467-.963-10.82-2.862-15.911-.229-.614-.143-1.301.231-1.84.374-.538.988-.859 1.643-.859h10.288c1.104 0 2 .896 2 2v22.872c0 .703-.369 1.354-.971 1.715-.317.189-.673.284-1.03.284zm-5.299-5.654c1.122.112 2.228.336 3.299.666v-17.884h-5.494c1.458 4.72 2.195 9.622 2.195 14.61z" fill="#3762cc"/></g><g><path d="m60.593 131.106c-.356 0-.712-.095-1.029-.285-.603-.362-.971-1.013-.971-1.715v-22.871c0-1.104.896-2 2-2h10.288c.655 0 1.269.321 1.643.859.374.539.46 1.226.231 1.84-1.9 5.092-2.863 10.445-2.863 15.911v4.526c0 .538-.216 1.052-.6 1.428s-.916.589-1.44.571c-2.2-.035-4.395.475-6.317 1.5-.295.158-.618.236-.942.236zm2-22.871v17.883c1.072-.33 2.178-.553 3.299-.666v-2.608c0-4.987.737-9.889 2.195-14.61h-5.494z" fill="#3762cc"/></g><g><path d="m171.868 108.235c-.402 0-.801-.122-1.141-.357-.538-.374-.859-.988-.859-1.643v-87.708c0-1.365.685-2.623 1.833-3.367 1.141-.738 2.559-.849 3.794-.296 18.021 8.074 29.665 26.139 29.665 46.022 0 20.972-13.098 39.95-32.593 47.223-.227.085-.463.126-.699.126zm1.991-89.72.008.012v84.727c16.438-7.373 27.292-24.042 27.292-42.368.001-18.309-10.715-34.941-27.3-42.371z" fill="#3762cc"/></g><g><path d="m116.23 224.287c-11.862 0-21.513-9.651-21.513-21.513v-13.369c0-.675.341-1.305.906-1.674.566-.37 1.278-.428 1.897-.158 5.917 2.593 12.212 3.908 18.71 3.908s12.793-1.314 18.71-3.908c.618-.27 1.332-.211 1.897.158.565.37.906.999.906 1.674v13.369c.001 11.862-9.65 21.513-21.513 21.513zm-17.513-31.919v10.406c0 9.657 7.856 17.513 17.513 17.513s17.513-7.856 17.513-17.513v-10.406c-5.598 2.067-11.476 3.113-17.513 3.113s-11.915-1.046-17.513-3.113z" fill="#3762cc"/></g><g><path d="m181.124 255h-124.622c-1.104 0-2-.896-2-2v-34.711c0-10.778 8.769-19.547 19.547-19.547h22.668c1.104 0 2 .896 2 2v2.032c0 9.657 7.856 17.513 17.513 17.513s17.513-7.856 17.513-17.513v-2.032c0-1.104.896-2 2-2h27.833c10.778 0 19.547 8.769 19.547 19.547v34.711c.001 1.104-.894 2-1.999 2zm-122.622-4h120.622v-32.711c0-8.573-6.975-15.547-15.547-15.547l-25.833.032c0 11.862-9.651 21.513-21.513 21.513s-21.513-9.651-21.513-21.513v-.032h-20.669c-8.573 0-15.547 6.974-15.547 15.547z" fill="#3762cc"/></g><g><path d="m116.23 177.117c-6.899 0-12.511-5.613-12.511-12.512v-1.822c0-1.104.896-2 2-2h21.022c1.104 0 2 .896 2 2v1.822c.001 6.899-5.612 12.512-12.511 12.512zm-8.509-12.334c.095 4.612 3.875 8.334 8.509 8.334s8.415-3.722 8.509-8.334z" fill="#3762cc"/></g></g></svg>